<svg width="9" height="15" viewBox="0 0 9 15" fill="none" xmlns="http://www.w3.org/2000/svg">
<path d="M1.77886 0.287486C1.58513 0.101466 1.33855 0 1.04795 0C0.466732 0 0 0.439685 0 0.997746C0 1.27678 0.123288 1.53044 0.325831 1.72492L6.49022 7.50846L0.325831 13.2751C0.123288 13.4696 0 13.7317 0 14.0023C0 14.5603 0.466732 15 1.04795 15C1.33855 15 1.58513 14.8985 1.77886 14.7125L8.63014 8.28636C8.87671 8.06652 8.99119 7.79594 9 7.5C9 7.20406 8.87671 6.95039 8.63014 6.7221L1.77886 0.287486Z" fill="white"/>
</svg>
