<svg width="24" height="36" viewBox="0 0 24 36" fill="none" xmlns="http://www.w3.org/2000/svg">
<path d="M12.0002 1.95776C10.8405 1.95776 9.72823 2.38997 8.90818 3.15929C8.08814 3.92862 7.62744 4.97205 7.62744 6.06004V16.9994C7.62744 18.0874 8.08814 19.1308 8.90818 19.9002C9.72823 20.6695 10.8405 21.1017 12.0002 21.1017C13.1599 21.1017 14.2721 20.6695 15.0922 19.9002C15.9122 19.1308 16.3729 18.0874 16.3729 16.9994V6.06004C16.3729 4.97205 15.9122 3.92862 15.0922 3.15929C14.2721 2.38997 13.1599 1.95776 12.0002 1.95776V1.95776Z" fill="white" stroke="white" stroke-width="2.5" stroke-linecap="round" stroke-linejoin="round"/>
<path d="M22.2029 14.4834V17.2182C22.2029 19.7569 21.128 22.1916 19.2145 23.9866C17.3011 25.7817 14.7059 26.7902 11.9999 26.7902C9.29389 26.7902 6.69871 25.7817 4.78527 23.9866C2.87183 22.1916 1.79688 19.7569 1.79688 17.2182V14.4834" stroke="white" stroke-width="2.5" stroke-linecap="round" stroke-linejoin="round"/>
<path d="M12 28.5715V34.0412" stroke="white" stroke-width="2.5" stroke-linecap="round" stroke-linejoin="round"/>
<path d="M6.1698 34.041H17.8304" stroke="white" stroke-width="2.5" stroke-linecap="round" stroke-linejoin="round"/>
</svg>
