<svg width="18" height="19" viewBox="0 0 18 19" fill="none" xmlns="http://www.w3.org/2000/svg">
<path d="M10.6886 19H7.31201C7.10045 19 6.89523 18.926 6.73039 18.7902C6.56555 18.6544 6.451 18.4649 6.40572 18.2533L6.02818 16.4635C5.52453 16.2375 5.04697 15.9549 4.60428 15.6209L2.90023 16.1766C2.69853 16.2425 2.4809 16.2357 2.28348 16.1574C2.08605 16.0791 1.92071 15.9341 1.81491 15.7463L0.12293 12.7528C0.018243 12.5648 -0.0210537 12.346 0.0114686 12.1322C0.0439909 11.9184 0.146407 11.7222 0.301961 11.5758L1.62382 10.3407C1.56371 9.78131 1.56371 9.21679 1.62382 8.65735L0.301961 7.4252C0.146186 7.27868 0.0436313 7.08232 0.0111037 6.86829C-0.021424 6.65427 0.0180055 6.43527 0.12293 6.2472L1.8112 3.25185C1.917 3.06405 2.08234 2.91896 2.27977 2.84068C2.47719 2.7624 2.69482 2.75563 2.89652 2.8215L4.60057 3.37725C4.82691 3.20625 5.06252 3.04665 5.30556 2.90225C5.54025 2.76735 5.78143 2.6448 6.02818 2.53555L6.40665 0.74765C6.45171 0.535988 6.56605 0.346453 6.73071 0.210471C6.89538 0.0744893 7.10048 0.000227968 7.31201 0H10.6886C10.9001 0.000227968 11.1052 0.0744893 11.2699 0.210471C11.4345 0.346453 11.5489 0.535988 11.5939 0.74765L11.9761 2.5365C12.2358 2.6543 12.49 2.78635 12.7358 2.9336C12.9649 3.06945 13.1866 3.2186 13.4 3.37915L15.105 2.8234C15.3065 2.75777 15.524 2.76466 15.7212 2.84293C15.9184 2.9212 16.0836 3.06615 16.1894 3.25375L17.8776 6.2491C18.0928 6.63575 18.0186 7.125 17.6986 7.42615L16.3767 8.66115C16.4369 9.22059 16.4369 9.7851 16.3767 10.3446L17.6986 11.5795C18.0186 11.8816 18.0928 12.37 17.8776 12.7566L16.1894 15.7519C16.0836 15.9397 15.9182 16.0848 15.7208 16.1631C15.5234 16.2414 15.3057 16.2482 15.104 16.1823L13.4 15.6265C12.9576 15.9603 12.4804 16.2426 11.977 16.4682L11.5939 18.2533C11.5487 18.4648 11.4343 18.6541 11.2696 18.7899C11.105 18.9257 10.9 18.9998 10.6886 19ZM8.99657 5.7C8.01249 5.7 7.06871 6.10036 6.37286 6.81299C5.67701 7.52563 5.28608 8.49218 5.28608 9.5C5.28608 10.5078 5.67701 11.4744 6.37286 12.187C7.06871 12.8996 8.01249 13.3 8.99657 13.3C9.98066 13.3 10.9244 12.8996 11.6203 12.187C12.3161 11.4744 12.7071 10.5078 12.7071 9.5C12.7071 8.49218 12.3161 7.52563 11.6203 6.81299C10.9244 6.10036 9.98066 5.7 8.99657 5.7Z" fill="white"/>
</svg>
