<svg width="20" height="18" viewBox="0 0 20 18" fill="none" xmlns="http://www.w3.org/2000/svg">
<path d="M5.62686 7.07143C4.93555 7.07143 4.37703 7.64598 4.37703 8.35714C4.37703 9.0683 4.93555 9.64286 5.62686 9.64286C6.31818 9.64286 6.8767 9.0683 6.8767 8.35714C6.8767 7.64598 6.31818 7.07143 5.62686 7.07143ZM10.0013 7.07143C9.30998 7.07143 8.75146 7.64598 8.75146 8.35714C8.75146 9.0683 9.30998 9.64286 10.0013 9.64286C10.6926 9.64286 11.2511 9.0683 11.2511 8.35714C11.2511 7.64598 10.6926 7.07143 10.0013 7.07143ZM14.3757 7.07143C13.6844 7.07143 13.1259 7.64598 13.1259 8.35714C13.1259 9.0683 13.6844 9.64286 14.3757 9.64286C15.067 9.64286 15.6256 9.0683 15.6256 8.35714C15.6256 7.64598 15.067 7.07143 14.3757 7.07143ZM10.0013 0C4.47858 0 0.00259217 3.74062 0.00259217 8.35714C0.00259217 10.2696 0.779835 12.0214 2.06873 13.4317C1.48677 15.0147 0.275994 16.3567 0.256466 16.3728C-0.00131357 16.654 -0.071617 17.0638 0.0768013 17.4174C0.22522 17.771 0.565019 18 0.939971 18C3.342 18 5.23629 16.9674 6.37286 16.1397C7.50162 16.5054 8.72021 16.7143 10.0013 16.7143C15.524 16.7143 20 12.9737 20 8.35714C20 3.74062 15.524 0 10.0013 0ZM10.0013 14.7857C8.95846 14.7857 7.92735 14.621 6.93919 14.2996L6.05259 14.0103L5.29097 14.5647C4.73245 14.9705 3.96692 15.4246 3.04517 15.7299C3.33029 15.2437 3.60759 14.6973 3.82241 14.1147L4.23642 12.9857L3.43184 12.1098C2.7249 11.3344 1.87735 10.0527 1.87735 8.35714C1.87735 4.81339 5.52141 1.92857 10.0013 1.92857C14.4812 1.92857 18.1252 4.81339 18.1252 8.35714C18.1252 11.9009 14.4812 14.7857 10.0013 14.7857Z" fill="white"/>
</svg>
