<svg width="21" height="20" viewBox="0 0 21 20" fill="none" xmlns="http://www.w3.org/2000/svg">
<path d="M14.7328 5.89356C15.1097 5.72166 15.2759 5.2768 15.1039 4.89994C14.932 4.52308 14.4872 4.35693 14.1103 4.52883L14.7328 5.89356ZM6.53489 7.9843C6.15803 8.1562 5.99188 8.60106 6.16378 8.97792C6.33568 9.35478 6.78054 9.52093 7.1574 9.34903L6.53489 7.9843ZM6.87524 10.5223C6.49838 10.3504 6.05352 10.5165 5.88162 10.8934C5.70972 11.2702 5.87587 11.7151 6.25273 11.887L6.87524 10.5223ZM13.9217 15.3851C14.2986 15.557 14.7435 15.3909 14.9154 15.014C15.0873 14.6372 14.9211 14.1923 14.5443 14.0204L13.9217 15.3851ZM19.25 4C19.25 5.26113 18.2588 6.25 17.0769 6.25V7.75C19.1238 7.75 20.75 6.05258 20.75 4H19.25ZM17.0769 6.25C15.895 6.25 14.9038 5.26113 14.9038 4H13.4038C13.4038 6.05258 15.0301 7.75 17.0769 7.75V6.25ZM14.9038 4C14.9038 2.73888 15.895 1.75 17.0769 1.75V0.25C15.0301 0.25 13.4038 1.94742 13.4038 4H14.9038ZM17.0769 1.75C18.2588 1.75 19.25 2.73888 19.25 4H20.75C20.75 1.94742 19.1238 0.25 17.0769 0.25V1.75ZM6.09615 10C6.09615 11.2611 5.10499 12.25 3.92308 12.25V13.75C5.96991 13.75 7.59615 12.0526 7.59615 10H6.09615ZM3.92308 12.25C2.74117 12.25 1.75 11.2611 1.75 10H0.25C0.25 12.0526 1.87625 13.75 3.92308 13.75V12.25ZM1.75 10C1.75 8.73888 2.74117 7.75 3.92308 7.75V6.25C1.87625 6.25 0.25 7.94742 0.25 10H1.75ZM3.92308 7.75C5.10499 7.75 6.09615 8.73888 6.09615 10H7.59615C7.59615 7.94742 5.96991 6.25 3.92308 6.25V7.75ZM19.25 16C19.25 17.2611 18.2588 18.25 17.0769 18.25V19.75C19.1238 19.75 20.75 18.0526 20.75 16H19.25ZM17.0769 18.25C15.895 18.25 14.9038 17.2611 14.9038 16H13.4038C13.4038 18.0526 15.0301 19.75 17.0769 19.75V18.25ZM14.9038 16C14.9038 14.7389 15.895 13.75 17.0769 13.75V12.25C15.0301 12.25 13.4038 13.9474 13.4038 16H14.9038ZM17.0769 13.75C18.2588 13.75 19.25 14.7389 19.25 16H20.75C20.75 13.9474 19.1238 12.25 17.0769 12.25V13.75ZM14.1103 4.52883L6.53489 7.9843L7.1574 9.34903L14.7328 5.89356L14.1103 4.52883ZM14.5443 14.0204L6.87524 10.5223L6.25273 11.887L13.9217 15.3851L14.5443 14.0204Z" fill="white"/>
</svg>
