<svg width="375" height="300" viewBox="0 0 375 300" fill="none" xmlns="http://www.w3.org/2000/svg">
<path d="M252.962 187.014C231.18 174.649 192.034 151.315 160.272 118.211C128.509 85.1087 132.443 39 132.443 39C103.781 41.4011 96.3613 101.586 96.3613 101.586C62.0698 120.255 74.0986 172.886 74.0986 172.886C74.0986 172.886 69.4923 177.153 62.583 199.556C55.6736 221.96 60.8839 245.225 60.8839 245.225C84.6443 202.947 174.336 198.103 213.565 201.425C252.365 204.708 276.555 210.301 278.053 232.306C279.531 254.053 239.418 262.69 238.674 262.846C239.816 263.953 239.717 266.373 240.38 268C244.316 267.375 291.638 262.846 287.776 227.028C285.571 206.62 270.67 197.065 252.962 187.014Z" fill="#BF6CA3"/>
<path d="M252.962 187.014C231.18 174.649 192.034 151.315 160.272 118.211C128.509 85.1087 132.443 39 132.443 39C103.781 41.4011 96.3613 101.586 96.3613 101.586C62.0698 120.255 74.0986 172.886 74.0986 172.886C74.0986 172.886 69.4923 177.153 62.583 199.556C55.6736 221.96 60.8839 245.225 60.8839 245.225C84.6443 202.947 174.336 198.103 213.565 201.425C252.365 204.708 276.555 210.301 278.053 232.306C279.531 254.053 239.418 262.69 238.674 262.846C239.816 263.953 239.717 266.373 240.38 268C244.316 267.375 291.638 262.846 287.776 227.028C285.571 206.62 270.67 197.065 252.962 187.014Z" fill="url(#paint0_linear_66_1663)"/>
<path d="M229.449 104.235C229.449 104.235 229.734 103.436 229.503 101.698C229.219 99.548 228.403 96.3466 228.283 96.0696C228.064 95.5671 234.771 92.5593 234.771 92.5593C234.771 92.5593 245.88 90.662 247.395 89.2158C248.91 87.772 250.249 87.0905 249.628 88.4755C248.503 90.9807 245.635 94.8023 244.961 95.3563C244.29 95.9103 235.867 99.1239 235.71 99.1435C235.553 99.1632 236.254 104.615 236.254 104.615L229.449 104.235Z" fill="#F7A491"/>
<path d="M236.423 101.048C236.423 101.048 229.04 100.676 228.993 101.416C227.969 117.774 228.101 123.125 227.797 123.331C226.763 124.027 209.371 112.074 206.66 111.479C205.363 111.194 204.017 111.427 202.723 111.618C199.637 112.077 200.674 111.878 199.051 112.153L199.053 112.155C198.965 112.172 198.916 112.182 198.916 112.182L199.279 115.092C203.14 117.818 216.769 164.412 217.436 164.299C218.183 164.174 234.44 166.275 234.004 164.978C233.933 164.767 222.243 157.313 217.727 145.086C216.212 140.982 215.17 136.492 214.148 132.575C217.864 133.918 232.364 139.034 234.428 137.884C240.853 134.312 236.423 101.048 236.423 101.048Z" fill="#355389"/>
<path d="M273.624 182.235C273.624 182.235 289.675 191.996 290.408 193.977C291.462 196.83 304.452 191.374 301.138 191.161C300.375 191.111 297.917 190.788 297.706 190.707C296.588 190.271 281.652 176.073 281.652 176.073L273.624 182.235Z" fill="#F7A491"/>
<path d="M307.445 190.413L297.978 190.761C297.978 190.761 295.561 193.298 290.423 194.012C290.423 194.012 289.879 196.463 290.597 199.167C290.722 199.632 290.972 201.059 291.445 200.968C293.164 200.645 297.642 198.948 302.778 197.272C302.778 197.272 309.668 194.936 313.46 192.009C317.25 189.087 307.445 190.413 307.445 190.413Z" fill="#A081E7"/>
<path d="M204.397 161.189C204.397 161.189 215.367 161.721 226.929 157.526C240.311 152.673 255.176 147.89 259.944 149.954C263.78 151.614 290.212 182.824 290.212 182.824L282.307 190.168L254.35 165.461C254.35 165.461 224.243 180.814 217.016 180.368C200.563 179.343 198.808 166.508 204.397 161.189Z" fill="#B75742"/>
<path d="M215.342 152.959L227.621 164.471L208.38 172.92L204.397 161.188L215.342 152.959Z" fill="#B75742"/>
<path d="M244.142 208.776C244.142 208.776 245.596 226.616 245.547 229.673C245.498 232.715 254.511 240.795 253.124 237.777C252.805 237.084 251.92 234.765 251.893 234.544C251.746 233.355 252.293 212.74 252.293 212.74L244.142 208.776Z" fill="#F7A491"/>
<path d="M256.779 242.971L251.974 234.806C251.974 234.806 248.594 233.884 245.523 229.702C245.523 229.702 243.108 230.386 241.069 232.303C240.716 232.634 238.318 234.867 238.553 235.289C239.421 236.84 243.412 239.909 247.775 243.26C247.775 243.26 253.85 247.075 258.228 249.021C262.606 250.967 256.779 242.971 256.779 242.971Z" fill="#A081E7"/>
<path d="M257.419 171.687C253.063 167.118 222.147 165.959 222.147 165.959L211.753 150.697L194.408 164.458C194.408 164.458 198.046 179.127 199.923 182.941C202.424 188.02 215.033 186.8 222.706 185.809C229.766 184.897 242.846 184.807 242.846 184.807L243.049 223.846C243.049 223.846 251.864 224.78 254.239 224.179C254.507 224.108 262.838 177.372 257.419 171.687Z" fill="#F47458"/>
<path d="M199.026 112.194L188.535 114.025C188.535 114.025 188.304 114.138 188.231 114.163C187.39 114.425 191.822 145.101 193.952 156.502C196.082 167.903 198.212 172.545 198.212 172.545C198.212 172.545 212.231 168.305 216.423 166.076C218.164 165.152 221.921 159.11 221.921 159.11C221.921 159.11 216.693 153.582 213.251 144.002C210.599 136.614 206.839 123.407 205.27 120.744C201.666 114.626 199.026 112.194 199.026 112.194Z" fill="#A081E7"/>
<path d="M187.733 104.679L188.54 114.038C188.54 114.038 196.771 125.005 200.085 122.946C202.865 121.22 199.191 112.572 199.191 112.572C199.191 112.572 198.438 110.579 197.45 108.302C196.761 106.711 196.139 104.973 196.014 103.659C195.707 100.465 187.733 104.679 187.733 104.679Z" fill="#F7A491"/>
<path d="M193.374 82.4478C193.374 82.4478 197.479 87.2842 198.264 91.672C199.048 96.0598 198.47 99.1852 198.47 99.1852L185.708 87.1518L193.374 82.4478Z" fill="#184655"/>
<path d="M199.316 90.6304C199.656 92.1601 199.213 93.5597 198.325 93.7583C197.438 93.9568 196.44 92.8783 196.099 91.3511C195.759 89.824 196.202 88.4218 197.09 88.2233C197.977 88.0247 198.975 89.1033 199.316 90.6304Z" fill="#F48C7F"/>
<path d="M182.348 89.7234C182.085 89.6989 183.637 102.558 187.723 105.142C191.81 107.726 198.33 107.223 199.865 103.948C201.561 100.328 197.957 87.0123 192.072 84.7914C186.184 82.5705 182.348 89.7234 182.348 89.7234Z" fill="#F7A491"/>
<path d="M180.455 81.8595C177.906 84.6932 176.744 86.6787 175.344 91.3435C173.623 97.0796 178.992 102.173 183.198 103.953C187.405 105.73 188.066 108.449 188.066 108.449L188.02 106.716C188.03 105.363 187.537 104.652 187.064 103.889C186.645 103.213 185.274 100.884 184.779 100.286C183.468 98.7073 183.206 98.3641 183.561 96.6751C183.833 95.3735 183.019 92.6746 183.426 90.5371L188.593 88.7648C188.593 88.7648 191.817 87.5734 193.263 85.4408C197.411 79.3175 187.164 74.2555 180.455 81.8595Z" fill="#184655"/>
<path d="M184.985 97.93C185.806 99.2636 185.843 100.732 185.069 101.21C184.294 101.688 183 100.992 182.178 99.6582C181.357 98.3247 181.32 96.8564 182.098 96.3784C182.872 95.9028 184.164 96.5965 184.985 97.93Z" fill="#F7A491"/>
<path d="M144.644 66.7374C145.541 69.1422 147.093 72.927 147.093 72.927C147.135 74.0129 147.348 78.5282 147.622 84.0583L155.305 79.874C155.305 79.874 154.148 70.9439 154.442 70.3556C154.692 69.8555 155.271 70.3727 157.322 66.5413C157.915 65.4358 157.832 63.5949 157.832 63.5949C157.832 63.5949 157.712 61.3323 157.183 61.1828C156.653 61.0333 156.114 61.4377 155.979 61.8471C155.842 62.2564 155.996 63.1561 155.861 63.5654C155.724 63.9748 154.614 64.5803 154.118 64.6146C153.623 64.6489 153.39 57.9642 153.39 57.9642C153.39 57.9642 153.442 56.0547 153.508 55.4247C153.564 54.8878 153.859 53.2945 153.859 53.2945C153.859 53.2945 154.153 51.0001 153.442 50.9118C153.023 50.8604 152.199 52.792 151.714 54.7971C151.192 56.9567 151.018 59.2021 150.794 59.1972C150.272 59.1899 150.113 55.5276 150.113 55.5276C150.113 55.5276 150.429 53.8044 150.324 53.0224C150.694 52.0027 150.804 50.1838 149.934 50.1372C149.772 50.1299 148.917 52.5272 148.917 52.5272C148.917 52.5272 148.664 54.1745 148.495 54.9491C148.196 56.317 148.375 58.4006 148.245 59.3443C148.137 60.1287 147.924 59.837 147.846 59.8787C147.787 59.9106 147.772 58.8467 147.725 57.3882C147.703 56.6528 147.52 55.8242 147.625 54.9712C147.723 54.1819 147.701 53.0714 147.669 52.4022C147.583 50.5098 146.426 50.8407 146.22 52.6057C146.142 53.2773 146.063 54.0103 145.985 54.753C145.683 57.6431 146.024 60.3493 145.723 60.4082C145.333 60.4842 145.007 55.5178 145.007 55.5178C145.007 55.5178 144.078 52.8582 143.779 55.4639C143.431 58.4888 143.789 60.8788 143.811 60.9842C143.963 61.7049 143.747 64.3327 144.644 66.7374Z" fill="#F8A492"/>
<path d="M188.525 114.043C188.525 114.043 178.014 114.79 175.168 113.891C173.442 113.344 158.705 104.103 158.705 104.103L155.413 75.0645L145.867 75.4665C145.867 75.4665 144.769 108.125 146.885 111.434C149.069 114.852 170.53 127.441 175.236 133.452C177.948 136.913 186.132 183.782 186.902 184.155C192.312 186.202 210.925 190.303 210.364 188.739C194.847 145.507 188.525 114.043 188.525 114.043Z" fill="#355389"/>
<path d="M232.982 96.1456C232.982 96.1456 235.744 94.5523 236.494 94.1993C237.244 93.8463 239.684 93.0839 239.684 93.0839C239.684 93.0839 243.083 88.6471 244.059 88.4264C245.035 88.2058 242.314 93.0349 242.314 93.0349L241.118 94.4959C241.118 94.4959 243.079 92.3657 243.463 92.0568C243.848 91.748 246.562 86.6272 247.43 86.8405C248.297 87.0537 246.459 90.6449 245.576 92.5422C244.694 94.4395 239.833 96.1235 239.833 96.1235L232.982 96.1456Z" fill="#F7A491"/>
<path d="M247.155 81.0187C247.084 80.9403 239.892 73.0789 226.143 68.2376C206.517 61.3299 172.876 68.8995 162.889 47.2422C161.107 43.3765 161.024 40.3541 161.021 40.2266C161.011 39.7658 161.71 39.7511 161.72 40.2119C161.72 40.2413 161.806 43.2417 163.536 46.9799C173.342 68.1592 206.638 60.6312 226.373 67.5782C236.244 71.0542 244.361 76.8711 247.672 80.5505C247.984 80.8962 247.464 81.3643 247.155 81.0187Z" fill="#B08CDF"/>
<path d="M246.883 77.307C246.611 77.0104 240.078 69.9924 227.824 65.656C214.474 60.9152 193.942 62.0747 181.602 56.5519C174.106 53.196 170.442 48.3939 168.686 44.9548C166.779 41.2165 166.654 38.3068 166.649 38.1843C166.632 37.7234 167.331 37.6965 167.348 38.1598C167.351 38.2039 167.48 41.0743 169.326 44.6704C171.032 47.9968 174.594 52.6494 181.887 55.9121C194.099 61.3785 214.592 60.2141 228.057 64.9966C240.475 69.3893 247.121 76.5324 247.398 76.8339C247.528 76.9761 247.518 77.1967 247.376 77.3266C247.236 77.459 247.013 77.4517 246.883 77.307Z" fill="#B08CDF"/>
<path d="M246.608 73.5935C243.699 70.4215 237.676 65.992 229.503 63.075C216.607 58.4494 199.078 58.5744 188.057 53.9512C180.21 50.6591 176.339 46.009 174.476 42.6875C172.444 39.0694 172.285 36.2602 172.28 36.145C172.258 35.6841 172.954 35.6474 172.979 36.1107C172.981 36.1376 173.143 38.9002 175.106 42.3835C176.92 45.5972 180.686 50.1027 188.329 53.309C193.893 55.6426 201.1 56.7433 208.731 57.9052C215.938 59.0034 223.392 60.1408 229.739 62.418C238.031 65.3768 244.157 69.8871 247.123 73.1229C247.435 73.4636 246.92 73.9342 246.608 73.5935Z" fill="#B08CDF"/>
<path d="M246.334 69.8798C233.867 56.2873 208.608 56.829 194.513 51.3504C186.302 48.1588 182.227 43.6582 180.254 40.4421C178.102 36.9343 177.913 34.2133 177.906 34.0981C177.879 33.6373 178.575 33.5956 178.604 34.0565C178.607 34.1055 178.805 36.7651 180.874 40.1161C182.794 43.2268 186.76 47.5876 194.766 50.6983C208.814 56.1574 234.18 55.5936 246.849 69.4067C246.979 69.5489 246.969 69.7695 246.827 69.8994C246.684 70.0318 246.464 70.0219 246.334 69.8798Z" fill="#B08CDF"/>
<path d="M192.121 42.3101C190.964 41.1041 189.5 37.5889 188.625 35.4906C187.449 32.6692 187.591 33.2477 187.145 33.0222C186.206 32.8334 186.998 33.5124 179.509 48.8232C176.408 44.7663 167.515 45.7616 167.542 50.4779C167.556 52.9145 170.128 55.0937 173.596 55.0741C176.006 55.0593 178.171 53.9563 179.112 52.2624L179.107 52.26C179.352 51.8114 182.61 45.161 185.289 39.7755C186.226 43.3372 190.415 45.9332 193.028 44.2074L193.82 43.6853L193.018 43.1803C192.741 43.0014 192.163 42.3543 192.121 42.3101Z" fill="#A68AE8"/>
<path d="M240.48 56.9494C239.058 56.5424 236.36 54.4981 234.747 53.2749C233.04 51.983 232.862 51.8482 232.44 52.0247C231.55 52.3237 232.474 52.7356 233.57 67.7522C229.307 66.127 222.978 70.7281 225.133 74.3781C227.412 78.2389 235.07 75.3096 234.972 70.5222H234.967C234.955 70.0687 234.482 62.4476 234.136 57.2018C236.504 59.4301 240.828 60.6091 242.074 58.0941L242.493 57.246C241.399 57.1626 241.868 57.3514 240.48 56.9494Z" fill="#A68AE8"/>
<path d="M217.261 57.0522C217.244 56.4173 216.781 49.4973 216.222 41.0011C207.29 41.9473 207.598 42.0356 199.372 40.7266C199.646 45.0923 199.943 49.4777 200.198 53.0076C195.871 51.3579 190.503 56.4247 192.631 60.0281C194.928 63.9183 202.139 59.8369 202.044 55.074C202.044 55.074 201.558 51.277 201.149 45.2173L215.053 45.3448C215.18 47.2176 215.335 50.8995 215.599 54.4955C211.297 52.8556 205.292 57.2924 207.429 60.9106C208.606 62.9035 211.665 63.281 214.249 61.7563C216.119 60.6532 217.306 58.8049 217.269 57.0522H217.261Z" fill="#A68AE8"/>
<defs>
<linearGradient id="paint0_linear_66_1663" x1="-95.8312" y1="153.5" x2="93.3671" y2="-55.4948" gradientUnits="userSpaceOnUse">
<stop stop-color="#F545E5"/>
<stop offset="1" stop-color="#FFAA6C"/>
</linearGradient>
</defs>
</svg>
