<svg width="375" height="300" viewBox="0 0 375 300" fill="none" xmlns="http://www.w3.org/2000/svg">
<g clip-path="url(#clip0_34_1929)">
<path d="M156.494 292.726C73.6823 278.718 85.5058 233.003 60.1928 180.891C34.8797 128.779 32.1278 107.436 58.7224 61.9907C85.317 16.5386 141.71 -9.77048 193.307 27.0379C244.905 63.8463 283.208 51.5318 314.288 80.3577C345.361 109.184 348.997 150.081 310.997 187.2C272.997 224.319 258.61 309.993 156.494 292.726Z" fill="#BF6CA3"/>
<path d="M156.494 292.726C73.6823 278.718 85.5058 233.003 60.1928 180.891C34.8797 128.779 32.1278 107.436 58.7224 61.9907C85.317 16.5386 141.71 -9.77048 193.307 27.0379C244.905 63.8463 283.208 51.5318 314.288 80.3577C345.361 109.184 348.997 150.081 310.997 187.2C272.997 224.319 258.61 309.993 156.494 292.726Z" fill="url(#paint0_linear_34_1929)"/>
<path d="M156.494 292.726C73.6823 278.718 85.5058 233.003 60.1928 180.891C34.8797 128.779 32.1278 107.436 58.7224 61.9907C85.317 16.5386 141.71 -9.77048 193.307 27.0379C244.905 63.8463 283.208 51.5318 314.288 80.3577C345.361 109.184 348.997 150.081 310.997 187.2C272.997 224.319 258.61 309.993 156.494 292.726Z" fill="url(#paint1_linear_34_1929)"/>
<path d="M223.22 57.436C218.526 65.3848 213.805 73.8935 208.577 81.0595" stroke="#263238" stroke-miterlimit="10" stroke-linecap="round" stroke-linejoin="round"/>
<path d="M247.11 18.8867C239.934 30.4589 232.764 42.0311 225.588 53.6033" stroke="#263238" stroke-miterlimit="10" stroke-linecap="round" stroke-linejoin="round"/>
<path d="M252.364 10.4116C251.427 11.9163 250.496 13.4278 249.558 14.9325" stroke="#263238" stroke-miterlimit="10" stroke-linecap="round" stroke-linejoin="round"/>
<path d="M239.941 88.8599C237.695 90.3578 235.449 91.8558 233.203 93.3538" stroke="#263238" stroke-miterlimit="10" stroke-linecap="round" stroke-linejoin="round"/>
<path d="M272.922 66.7544C262.974 73.6842 253.025 80.5803 242.942 86.8556" stroke="#263238" stroke-miterlimit="10" stroke-linecap="round" stroke-linejoin="round"/>
<path d="M310.086 42.0918C298.701 48.8799 287.498 56.606 276.315 64.3927" stroke="#263238" stroke-miterlimit="10" stroke-linecap="round" stroke-linejoin="round"/>
<path d="M153.587 60.3511C155.773 64.204 157.945 68.0771 160.204 71.7951" stroke="#263238" stroke-miterlimit="10" stroke-linecap="round" stroke-linejoin="round"/>
<path d="M122.629 10.4116C132.186 25.2834 141.629 41.0796 151.105 56.3563" stroke="#263238" stroke-miterlimit="10" stroke-linecap="round" stroke-linejoin="round"/>
<path d="M139.801 92.0244C140.462 92.463 141.13 92.9083 141.791 93.3469" stroke="#263238" stroke-miterlimit="10" stroke-linecap="round" stroke-linejoin="round"/>
<path d="M88.8984 58.313C104.803 69.1834 120.707 80.0876 136.8 90.0134" stroke="#263238" stroke-miterlimit="10" stroke-linecap="round" stroke-linejoin="round"/>
<path d="M71.0315 46.1743C75.9821 49.5009 80.9193 52.8612 85.8565 56.235" stroke="#263238" stroke-miterlimit="10" stroke-linecap="round" stroke-linejoin="round"/>
<path d="M64.9141 42.0918C66.0809 42.8678 67.2477 43.6438 68.4078 44.4197" stroke="#263238" stroke-miterlimit="10" stroke-linecap="round" stroke-linejoin="round"/>
<path d="M187.5 9.88525C187.5 21.9905 187.5 34.089 187.5 46.1943" stroke="#263238" stroke-miterlimit="10" stroke-linecap="round" stroke-linejoin="round"/>
<path d="M187.5 0.337402C187.5 2.19975 187.5 4.0621 187.5 5.9177" stroke="#263238" stroke-miterlimit="10" stroke-linecap="round" stroke-linejoin="round"/>
<path d="M151.78 231.93C156.474 223.981 161.195 215.472 166.423 208.306" stroke="#263238" stroke-miterlimit="10" stroke-linecap="round" stroke-linejoin="round"/>
<path d="M127.89 270.479C135.066 258.907 142.236 247.335 149.412 235.763" stroke="#263238" stroke-miterlimit="10" stroke-linecap="round" stroke-linejoin="round"/>
<path d="M122.629 278.961C123.566 277.456 124.497 275.945 125.435 274.44" stroke="#263238" stroke-miterlimit="10" stroke-linecap="round" stroke-linejoin="round"/>
<path d="M135.053 200.513C137.299 199.015 139.545 197.517 141.791 196.019" stroke="#263238" stroke-miterlimit="10" stroke-linecap="round" stroke-linejoin="round"/>
<path d="M102.078 222.611C112.026 215.682 121.975 208.786 132.058 202.51" stroke="#263238" stroke-miterlimit="10" stroke-linecap="round" stroke-linejoin="round"/>
<path d="M64.9141 247.281C76.2992 240.493 87.5023 232.767 98.6851 224.98" stroke="#263238" stroke-miterlimit="10" stroke-linecap="round" stroke-linejoin="round"/>
<path d="M214.729 217.355C211.903 212.456 209.063 207.557 207.93 205.695" stroke="#263238" stroke-miterlimit="10" stroke-linecap="round" stroke-linejoin="round"/>
<path d="M252.364 278.961C246.233 269.42 240.143 259.494 234.073 249.575" stroke="#263238" stroke-miterlimit="10" stroke-linecap="round" stroke-linejoin="round"/>
<path d="M235.192 197.342C234.531 196.903 233.863 196.458 233.203 196.019" stroke="#263238" stroke-miterlimit="10" stroke-linecap="round" stroke-linejoin="round"/>
<path d="M286.102 231.052C270.197 220.182 254.293 209.278 238.2 199.352" stroke="#263238" stroke-miterlimit="10" stroke-linecap="round" stroke-linejoin="round"/>
<path d="M303.968 243.192C299.018 239.865 294.081 236.505 289.143 233.131" stroke="#263238" stroke-miterlimit="10" stroke-linecap="round" stroke-linejoin="round"/>
<path d="M310.086 247.281C308.919 246.505 307.752 245.729 306.592 244.953" stroke="#263238" stroke-miterlimit="10" stroke-linecap="round" stroke-linejoin="round"/>
<path d="M187.5 238.374C187.5 231.545 187.5 224.71 187.5 217.881" stroke="#263238" stroke-miterlimit="10" stroke-linecap="round" stroke-linejoin="round"/>
<path d="M187.5 279.48C187.5 267.375 187.5 255.277 187.5 243.171" stroke="#263238" stroke-miterlimit="10" stroke-linecap="round" stroke-linejoin="round"/>
<path d="M187.5 289.029C187.5 287.166 187.5 285.304 187.5 283.448" stroke="#263238" stroke-miterlimit="10" stroke-linecap="round" stroke-linejoin="round"/>
<path d="M270.393 163.185C270.063 159.71 275.418 150.958 275.418 150.958C275.418 150.958 275.418 144.683 275.897 137.382L261.031 129.197L263.81 108.644L273.725 113.313L272.18 105.958C272.18 105.958 246.031 100.769 243.03 94.8179C243.03 94.8179 250.287 93.6303 258.671 88.8597C262.657 86.5925 267.695 91.1067 283.363 93.3537C287.977 94.0149 293.629 116.282 295.983 121.005C298.343 125.729 304.872 128.158 308.103 131.316C310.174 133.34 319.218 158.664 323.508 167.949C330.644 183.387 330.529 202.787 334.603 217.362L296.644 215.209C296.657 215.203 271.728 177.261 270.393 163.185Z" fill="white"/>
<path opacity="0.4" d="M281.063 155C282.257 162.456 277.866 170.682 271.87 169.366C271.081 167.018 270.555 164.919 270.393 163.185C270.062 159.703 275.418 150.958 275.418 150.958C275.418 150.958 275.418 144.683 275.897 137.382L261.031 129.19L263.81 108.637L273.725 113.306L272.187 105.952C272.187 105.952 246.038 100.769 243.036 94.8112C243.036 94.8112 250.294 93.6236 258.677 88.8598C260.815 87.6452 263.257 88.3807 267.486 89.6628C268.187 92.3348 269.563 95.297 276.612 96.2282C276.612 96.2282 278.574 118.246 283.114 124.123C283.114 124.123 279.552 145.567 281.063 155Z" fill="#BF6CA3"/>
<path opacity="0.4" d="M308.11 131.309C308.292 131.484 308.528 131.842 308.804 132.348C306.356 129.143 303.921 130.661 303.523 132.098C303.125 133.529 309.391 165.762 307.644 163.313C305.897 160.864 301.311 140.891 300.245 132.638C299.186 124.379 295.241 125.547 294.715 123.988C294.377 122.982 292.374 111.694 289.609 103.205C292.266 110.027 294.654 118.327 295.989 120.999C298.35 125.722 304.886 128.151 308.11 131.309Z" fill="#BF6CA3"/>
<path opacity="0.4" d="M334.239 215.972C332.101 212.969 330.799 209.231 329.403 206.208C327.002 200.999 327.535 193.259 327.535 193.259C327.535 193.259 323.265 178.313 320.196 171.903C317.384 166.039 312.231 140.479 309.506 133.725C312.831 140.688 319.879 160.074 323.515 167.942C330.428 182.901 330.536 201.572 334.239 215.972Z" fill="#BF6CA3"/>
<path d="M270.393 163.185C270.063 159.71 275.418 150.958 275.418 150.958C275.418 150.958 275.418 144.683 275.897 137.382L261.031 129.197L263.81 108.644L273.725 113.313L272.18 105.958C272.18 105.958 246.031 100.769 243.03 94.8179C243.03 94.8179 250.287 93.6303 258.671 88.8597C262.657 86.5925 267.695 91.1067 283.363 93.3537C287.977 94.0149 293.629 116.282 295.983 121.005C298.343 125.729 304.872 128.158 308.103 131.316C310.174 133.34 319.218 158.664 323.508 167.949C330.644 183.387 330.529 202.787 334.603 217.362L296.644 215.209C296.657 215.203 271.728 177.261 270.393 163.185Z" stroke="black" stroke-miterlimit="10" stroke-linecap="round" stroke-linejoin="round"/>
<path d="M276.605 132.098C276.841 125.904 272.187 105.958 272.187 105.958C272.187 105.958 272.868 99.035 276.612 98.502" stroke="black" stroke-miterlimit="10" stroke-linecap="round" stroke-linejoin="round"/>
<path d="M272.147 157.152C272.147 157.152 274.838 149.777 279.64 146.559" stroke="black" stroke-miterlimit="10" stroke-linecap="round" stroke-linejoin="round"/>
<path d="M278.595 126.066C277.091 127.74 275.418 134.865 275.418 150.958" stroke="black" stroke-miterlimit="10" stroke-linecap="round" stroke-linejoin="round"/>
<path d="M287.518 126.019C287.518 126.019 295.376 124.575 297.898 126.329C301.878 129.102 298.168 131.309 303.793 151.451C306.531 161.262 308.818 166.147 308.818 166.147" stroke="black" stroke-miterlimit="10" stroke-linecap="round" stroke-linejoin="round"/>
<path d="M301.878 128.34C301.878 128.34 306.815 129.103 308.11 131.316" stroke="black" stroke-miterlimit="10" stroke-linecap="round" stroke-linejoin="round"/>
<path d="M312.204 139.959C314.106 144.683 318.247 164.163 320.203 170.034" stroke="black" stroke-miterlimit="10" stroke-linecap="round" stroke-linejoin="round"/>
<path d="M104.6 163.185C104.931 159.71 99.5754 150.958 99.5754 150.958C99.5754 150.958 99.5754 144.683 99.0965 137.382L113.962 129.197L111.183 108.637L101.268 113.306L102.813 105.951C102.813 105.951 128.962 100.762 131.964 94.8111C131.964 94.8111 124.706 93.6235 116.323 88.8529C112.336 86.5857 107.298 91.0999 91.6301 93.3468C87.0166 94.0081 81.3645 116.275 79.0106 120.999C76.6567 125.722 70.121 128.151 66.8903 131.309C64.8196 133.333 55.7749 158.657 51.4853 167.942C44.3493 183.381 44.464 202.78 40.3901 217.355L78.3496 215.202C78.3429 215.202 103.265 177.26 104.6 163.185Z" fill="white"/>
<path opacity="0.4" d="M93.93 155C92.7362 162.456 97.1271 170.682 103.123 169.366C103.912 167.018 104.438 164.919 104.6 163.185C104.931 159.703 99.5754 150.958 99.5754 150.958C99.5754 150.958 99.5754 144.683 99.0965 137.382L113.962 129.19L111.183 108.637L101.268 113.306L102.806 105.952C102.806 105.952 128.956 100.769 131.957 94.8112C131.957 94.8112 124.7 93.6236 116.316 88.8598C114.178 87.6452 111.736 88.3807 107.507 89.6628C106.806 92.3348 105.43 95.297 98.3816 96.2282C98.3816 96.2282 96.4189 118.246 91.8796 124.123C91.8796 124.123 95.4409 145.567 93.93 155Z" fill="#BF6CA3"/>
<path opacity="0.4" d="M66.8836 131.309C66.7014 131.484 66.4654 131.842 66.1888 132.348C68.6372 129.143 71.072 130.661 71.47 132.098C71.8679 133.529 65.602 165.762 67.3489 163.313C69.0958 160.864 73.6823 140.891 74.7479 132.638C75.8069 124.379 79.7525 125.547 80.2786 123.988C80.6159 122.982 82.6191 111.694 85.3844 103.205C82.727 110.027 80.3393 118.327 79.0039 120.999C76.6432 125.722 70.1075 128.151 66.8836 131.309Z" fill="#BF6CA3"/>
<path opacity="0.4" d="M40.7544 215.972C42.8925 212.969 44.1942 209.231 45.5904 206.208C47.9915 200.999 47.4587 193.259 47.4587 193.259C47.4587 193.259 51.7281 178.313 54.797 171.903C57.6095 166.039 62.7625 140.479 65.4874 133.725C62.1623 140.688 55.114 160.074 51.4786 167.942C44.5652 182.901 44.4573 201.572 40.7544 215.972Z" fill="#BF6CA3"/>
<path d="M104.6 163.185C104.931 159.71 99.5754 150.958 99.5754 150.958C99.5754 150.958 99.5754 144.683 99.0965 137.382L113.962 129.197L111.183 108.637L101.268 113.306L102.813 105.951C102.813 105.951 128.962 100.762 131.964 94.8111C131.964 94.8111 124.706 93.6235 116.323 88.8529C112.336 86.5857 107.298 91.0999 91.63 93.3468C87.0166 94.0081 81.3645 116.275 79.0106 120.999C76.6567 125.722 70.121 128.151 66.8903 131.309C64.8196 133.333 55.7749 158.657 51.4853 167.942C44.3493 183.381 44.464 202.78 40.3901 217.355L78.3496 215.202C78.3429 215.202 103.265 177.26 104.6 163.185Z" stroke="black" stroke-miterlimit="10" stroke-linecap="round" stroke-linejoin="round"/>
<path d="M98.3883 132.098C98.1523 125.904 102.806 105.958 102.806 105.958C102.806 105.958 102.125 99.035 98.3816 98.502" stroke="black" stroke-miterlimit="10" stroke-linecap="round" stroke-linejoin="round"/>
<path d="M102.847 157.152C102.847 157.152 100.155 149.777 95.3531 146.559" stroke="black" stroke-miterlimit="10" stroke-linecap="round" stroke-linejoin="round"/>
<path d="M96.3986 126.066C97.9026 127.739 99.5753 134.865 99.5753 150.958" stroke="black" stroke-miterlimit="10" stroke-linecap="round" stroke-linejoin="round"/>
<path d="M87.4821 126.019C87.4821 126.019 79.6244 124.575 77.1019 126.329C73.1225 129.102 76.8321 131.309 71.207 151.451C68.4686 161.262 66.1821 166.147 66.1821 166.147" stroke="black" stroke-miterlimit="10" stroke-linecap="round" stroke-linejoin="round"/>
<path d="M73.1157 128.34C73.1157 128.34 68.1785 129.102 66.8835 131.316" stroke="black" stroke-miterlimit="10" stroke-linecap="round" stroke-linejoin="round"/>
<path d="M62.7963 139.959C60.8943 144.683 56.753 164.163 54.797 170.034" stroke="black" stroke-miterlimit="10" stroke-linecap="round" stroke-linejoin="round"/>
<path d="M141.818 96.2281H129.59V94.0149C129.59 93.799 129.765 93.6235 129.981 93.6235H141.433C141.649 93.6235 141.825 93.799 141.825 94.0149V96.2281H141.818Z" fill="#757575" stroke="#263238" stroke-miterlimit="10" stroke-linecap="round" stroke-linejoin="round"/>
<path d="M128.328 96.2281H116.1V94.0149C116.1 93.799 116.275 93.6235 116.491 93.6235H127.944C128.16 93.6235 128.335 93.799 128.335 94.0149V96.2281H128.328Z" fill="#757575" stroke="#263238" stroke-miterlimit="10" stroke-linecap="round" stroke-linejoin="round"/>
<path d="M266.724 185.108H108.269C104.56 185.108 101.558 182.099 101.558 178.394V101.532C101.558 97.8206 104.567 94.8179 108.269 94.8179H266.724C270.434 94.8179 273.435 97.8273 273.435 101.532V178.394C273.442 182.099 270.434 185.108 266.724 185.108Z" fill="#999999" stroke="#263238" stroke-miterlimit="10" stroke-linecap="round" stroke-linejoin="round"/>
<path d="M267.682 97.5845H107.318V182.335H267.682V97.5845Z" fill="#263238"/>
<path opacity="0.1" d="M244.372 97.5845C230.68 119.723 198.042 161.471 139.788 176.572C139.788 176.572 192.383 151.883 214.25 107.308C213.488 108.131 165.816 159.643 107.318 162.983V97.5845H244.372Z" fill="#BF6CA3"/>
<path d="M267.682 97.5845H107.318V182.335H267.682V97.5845Z" stroke="#263238" stroke-miterlimit="10" stroke-linecap="round" stroke-linejoin="round"/>
<path d="M105.518 138.293C105.518 138.819 105.086 139.251 104.56 139.251C104.034 139.251 103.602 138.819 103.602 138.293C103.602 137.766 104.034 137.335 104.56 137.335C105.093 137.328 105.518 137.76 105.518 138.293Z" fill="#757575" stroke="#263238" stroke-miterlimit="10" stroke-linecap="round" stroke-linejoin="round"/>
<path d="M106.091 133.334C106.091 134.177 105.41 134.859 104.567 134.859C103.723 134.859 103.042 134.177 103.042 133.334C103.042 132.49 103.723 131.809 104.567 131.809C105.403 131.809 106.091 132.49 106.091 133.334Z" fill="#757575" stroke="#263238" stroke-miterlimit="10" stroke-linecap="round" stroke-linejoin="round"/>
<path d="M282.211 156.464C282.211 156.464 278.616 156.464 276.35 157.78C276.35 157.78 270.731 157.429 267.244 154.197C263.548 150.776 260.682 147.213 260.682 147.213C260.682 147.213 256.055 119.959 245.938 119.258C237.851 118.698 241.297 125.074 243.024 135.648C243.523 138.711 243.341 150.479 244.744 153.414C250.47 165.405 253.208 176.269 258.692 187.382C260.796 191.646 277.672 208.509 279.338 209.946C291.128 220.121 301.798 234.636 303.376 286.242L346.671 242.233C341.025 233.131 341.686 224.69 339.474 221.188C336.796 216.943 330.085 205.695 328.784 198.063" fill="white"/>
<path opacity="0.4" d="M302.916 276.228C300.333 232.686 290.31 219.433 279.323 209.946C277.657 208.502 260.782 191.647 258.677 187.382C253.201 176.269 250.456 165.405 244.736 153.414C243.333 150.479 243.515 138.711 243.016 135.648C241.485 126.269 238.605 120.196 243.623 119.339C241.478 120.479 246.692 136.269 246.287 140.938C245.889 145.607 252.027 140.898 253.895 146.458C253.895 146.458 247.488 147.942 247.488 152.315C247.488 156.687 257.362 178.178 259.898 184.447C262.434 190.722 272.039 197.929 278.709 200.466C285.38 203.003 297.473 218.617 298.161 224.224C298.856 229.831 299.254 235.068 302.856 243.192C306.14 250.594 307.536 269.75 302.916 276.228Z" fill="#BF6CA3"/>
<path opacity="0.4" d="M281.778 162.827C281.245 161.626 277.907 159.622 275.897 159.548C273.88 159.473 270.973 159.757 268.835 157.787C266.791 155.89 261.153 147.901 260.708 147.26C261.038 147.665 263.77 150.998 267.237 154.204C270.724 157.429 276.342 157.787 276.342 157.787C277.644 157.031 279.384 156.707 280.625 156.572H280.632C282.959 157.517 281.063 158.954 281.063 158.954C281.063 158.954 282.311 164.028 281.778 162.827Z" fill="#BF6CA3"/>
<path d="M346.663 242.233C341.018 233.131 341.679 224.69 339.466 221.188C336.789 216.943 330.077 205.695 328.776 198.063" stroke="black" stroke-miterlimit="10" stroke-linecap="round" stroke-linejoin="round"/>
<path d="M282.211 156.464C282.211 156.464 278.616 156.464 276.35 157.78C276.35 157.78 270.731 157.429 267.244 154.197C263.548 150.776 260.682 147.213 260.682 147.213C260.682 147.213 256.055 119.959 245.938 119.258C237.851 118.698 241.297 125.074 243.024 135.648C243.523 138.711 243.341 150.479 244.744 153.414C250.47 165.405 253.208 176.269 258.692 187.382C260.796 191.646 277.672 208.509 279.338 209.946C291.128 220.121 301.798 234.636 303.376 286.242" stroke="black" stroke-miterlimit="10" stroke-linecap="round" stroke-linejoin="round"/>
<path d="M276.342 157.787C279.465 158.65 281.063 161.316 281.063 161.316" stroke="black" stroke-miterlimit="10" stroke-linecap="round" stroke-linejoin="round"/>
<path d="M254.921 146.558C254.921 146.558 246.915 145.405 245.134 150.958" stroke="black" stroke-miterlimit="10" stroke-linecap="round" stroke-linejoin="round"/>
<path d="M92.7902 156.464C92.7902 156.464 96.3851 156.464 98.6514 157.78C98.6514 157.78 104.27 157.429 107.757 154.197C111.453 150.776 114.319 147.213 114.319 147.213C114.319 147.213 118.946 119.959 129.063 119.258C137.15 118.698 133.704 125.074 131.977 135.648C131.478 138.711 131.66 150.479 130.257 153.414C124.531 165.405 121.793 176.269 116.309 187.382C114.205 191.646 97.3294 208.509 95.6634 209.946C83.8736 220.121 73.2034 234.636 71.6251 286.242L28.3373 242.233C33.9826 233.131 33.3217 224.69 35.5339 221.188C38.2116 216.943 44.9226 205.695 46.2244 198.063" fill="white"/>
<path opacity="0.4" d="M72.0771 276.228C74.6603 232.686 84.683 219.433 95.6702 209.946C97.3362 208.502 114.212 191.647 116.316 187.382C121.793 176.269 124.538 165.405 130.257 153.414C131.66 150.479 131.478 138.711 131.977 135.648C133.508 126.269 136.388 120.196 131.37 119.339C133.515 120.479 128.301 136.269 128.706 140.938C129.104 145.607 122.966 140.898 121.098 146.458C121.098 146.458 127.505 147.942 127.505 152.315C127.505 156.687 117.631 178.178 115.095 184.447C112.559 190.722 102.955 197.929 96.284 200.466C89.6134 203.003 77.5201 218.617 76.8321 224.224C76.1374 229.831 75.7395 235.068 72.1378 243.192C68.8598 250.594 67.4569 269.75 72.0771 276.228Z" fill="#BF6CA3"/>
<path opacity="0.4" d="M93.2151 162.827C93.748 161.626 97.0866 159.622 99.0966 159.548C101.113 159.473 104.02 159.757 106.158 157.787C108.202 155.89 113.841 147.901 114.286 147.26C113.955 147.665 111.224 150.998 107.757 154.204C104.27 157.429 98.6514 157.787 98.6514 157.787C97.3497 157.031 95.6095 156.707 94.3685 156.572H94.3617C92.0348 157.517 93.9301 158.954 93.9301 158.954C93.9301 158.954 92.6823 164.028 93.2151 162.827Z" fill="#BF6CA3"/>
<path d="M28.3373 242.233C33.9826 233.131 33.3217 224.69 35.5339 221.188C38.2116 216.943 44.9226 205.695 46.2244 198.063" stroke="black" stroke-miterlimit="10" stroke-linecap="round" stroke-linejoin="round"/>
<path d="M92.7902 156.464C92.7902 156.464 96.3851 156.464 98.6514 157.78C98.6514 157.78 104.27 157.429 107.757 154.197C111.453 150.776 114.319 147.213 114.319 147.213C114.319 147.213 118.946 119.959 129.063 119.258C137.15 118.698 133.704 125.074 131.977 135.648C131.478 138.711 131.66 150.479 130.257 153.414C124.531 165.405 121.793 176.269 116.309 187.382C114.205 191.646 97.3294 208.509 95.6634 209.946C83.8736 220.121 73.2034 234.636 71.6251 286.242" stroke="black" stroke-miterlimit="10" stroke-linecap="round" stroke-linejoin="round"/>
<path d="M98.6514 157.787C95.5286 158.65 93.9301 161.316 93.9301 161.316" stroke="black" stroke-miterlimit="10" stroke-linecap="round" stroke-linejoin="round"/>
<path d="M120.079 146.558C120.079 146.558 128.085 145.405 129.866 150.958" stroke="black" stroke-miterlimit="10" stroke-linecap="round" stroke-linejoin="round"/>
<path d="M208.483 109.966L205.124 115.817C210.156 118.704 214.452 122.834 217.548 127.746L223.254 124.143C219.571 118.3 214.459 113.401 208.483 109.966Z" fill="white"/>
<path d="M166.166 110.081L169.559 115.911C174.564 112.996 180.276 111.343 186.084 111.127L185.834 104.386C178.921 104.649 172.122 106.612 166.166 110.081Z" fill="white"/>
<path d="M150.721 125.607L156.569 128.974C159.462 123.947 163.59 119.649 168.5 116.559L164.905 110.85C159.064 114.528 154.161 119.629 150.721 125.607Z" fill="white"/>
<path d="M145.129 148.266C145.379 155.175 147.342 161.984 150.802 167.949L156.636 164.561C153.729 159.555 152.083 153.833 151.874 148.023L145.129 148.266Z" fill="white"/>
<path d="M151.84 146.707C151.84 140.904 153.264 135.148 155.962 130.061L149.999 126.903C146.789 132.962 145.096 139.811 145.096 146.748L151.84 146.781V146.707Z" fill="white"/>
<path d="M187.399 104.359H187.318V111.107H187.433C193.22 111.107 198.959 112.524 204.038 115.209L207.188 109.244C201.138 106.053 194.305 104.359 187.399 104.359Z" fill="white"/>
<path d="M229.756 146.559H223.011V146.707C223.011 152.53 221.575 158.306 218.856 163.407L224.812 166.579C228.043 160.506 229.756 153.63 229.756 146.66V146.559Z" fill="white"/>
<path d="M229.722 145.074C229.459 138.165 227.483 131.363 224.016 125.405L218.189 128.806C221.102 133.806 222.762 139.521 222.984 145.331L229.722 145.074Z" fill="white"/>
<path opacity="0.8" d="M208.483 109.966L205.124 115.817C210.156 118.704 214.452 122.834 217.548 127.746L223.254 124.143C219.571 118.3 214.459 113.401 208.483 109.966Z" fill="#BF6CA3"/>
<path opacity="0.6" d="M166.166 110.081L169.559 115.911C174.564 112.996 180.276 111.343 186.084 111.127L185.834 104.386C178.921 104.649 172.122 106.612 166.166 110.081Z" fill="#BF6CA3"/>
<path opacity="0.5" d="M150.721 125.607L156.569 128.974C159.462 123.947 163.59 119.649 168.5 116.559L164.905 110.85C159.064 114.528 154.161 119.629 150.721 125.607Z" fill="#BF6CA3"/>
<path opacity="0.3" d="M145.129 148.266C145.379 155.175 147.342 161.984 150.802 167.949L156.636 164.561C153.729 159.555 152.083 153.833 151.874 148.023L145.129 148.266Z" fill="#BF6CA3"/>
<path opacity="0.4" d="M151.84 146.707C151.84 140.904 153.264 135.148 155.962 130.061L149.999 126.903C146.789 132.962 145.096 139.811 145.096 146.748L151.84 146.781V146.707Z" fill="#BF6CA3"/>
<path opacity="0.7" d="M187.399 104.359H187.318V111.107H187.433C193.22 111.107 198.959 112.524 204.038 115.209L207.188 109.244C201.138 106.053 194.305 104.359 187.399 104.359Z" fill="#BF6CA3"/>
<path d="M229.756 146.559H223.011V146.707C223.011 152.53 221.575 158.306 218.856 163.407L224.812 166.579C228.043 160.506 229.756 153.63 229.756 146.66V146.559Z" fill="#BF6CA3"/>
<path opacity="0.9" d="M229.722 145.074C229.459 138.165 227.483 131.363 224.016 125.405L218.189 128.806C221.102 133.806 222.762 139.521 222.984 145.331L229.722 145.074Z" fill="#BF6CA3"/>
<path d="M208.483 109.966L205.124 115.817C210.156 118.704 214.452 122.834 217.548 127.746L223.254 124.143C219.571 118.3 214.459 113.401 208.483 109.966Z" stroke="#263238" stroke-miterlimit="10" stroke-linecap="round" stroke-linejoin="round"/>
<path d="M166.166 110.081L169.559 115.911C174.564 112.996 180.276 111.343 186.084 111.127L185.834 104.386C178.921 104.649 172.122 106.612 166.166 110.081Z" stroke="#263238" stroke-miterlimit="10" stroke-linecap="round" stroke-linejoin="round"/>
<path d="M150.721 125.607L156.569 128.974C159.462 123.947 163.59 119.649 168.5 116.559L164.905 110.85C159.064 114.528 154.161 119.629 150.721 125.607Z" stroke="#263238" stroke-miterlimit="10" stroke-linecap="round" stroke-linejoin="round"/>
<path d="M145.129 148.266C145.379 155.175 147.342 161.984 150.802 167.949L156.636 164.561C153.729 159.555 152.083 153.833 151.874 148.023L145.129 148.266Z" stroke="#263238" stroke-miterlimit="10" stroke-linecap="round" stroke-linejoin="round"/>
<path d="M151.84 146.707C151.84 140.904 153.264 135.148 155.962 130.061L149.999 126.903C146.789 132.962 145.096 139.811 145.096 146.748L151.84 146.781V146.707Z" stroke="#263238" stroke-miterlimit="10" stroke-linecap="round" stroke-linejoin="round"/>
<path d="M187.399 104.359H187.318V111.107H187.433C193.22 111.107 198.959 112.524 204.038 115.209L207.188 109.244C201.138 106.053 194.305 104.359 187.399 104.359Z" stroke="#263238" stroke-miterlimit="10" stroke-linecap="round" stroke-linejoin="round"/>
<path d="M229.756 146.559H223.011V146.707C223.011 152.53 221.575 158.306 218.856 163.407L224.812 166.579C228.043 160.506 229.756 153.63 229.756 146.66V146.559Z" stroke="#263238" stroke-miterlimit="10" stroke-linecap="round" stroke-linejoin="round"/>
<path d="M229.722 145.074C229.459 138.165 227.483 131.363 224.016 125.405L218.189 128.806C221.102 133.806 222.762 139.521 222.984 145.331L229.722 145.074Z" stroke="#263238" stroke-miterlimit="10" stroke-linecap="round" stroke-linejoin="round"/>
<path d="M187.992 144.069L218.863 153.448L186.859 149.345L187.992 144.069Z" fill="#BF6CA3" stroke="#263238" stroke-miterlimit="10" stroke-linecap="round" stroke-linejoin="round"/>
<path d="M191.675 146.707C191.675 149.055 189.773 150.958 187.426 150.958C185.079 150.958 183.177 149.055 183.177 146.707C183.177 144.359 185.079 142.456 187.426 142.456C189.773 142.463 191.675 144.359 191.675 146.707Z" fill="#757575" stroke="#263238" stroke-miterlimit="10" stroke-linecap="round" stroke-linejoin="round"/>
<path d="M187.426 149.609C185.827 149.609 184.526 148.306 184.526 146.707C184.526 145.108 185.827 143.806 187.426 143.806C189.024 143.806 190.326 145.108 190.326 146.707C190.326 148.306 189.024 149.609 187.426 149.609Z" fill="#999999" stroke="#263238" stroke-miterlimit="10" stroke-linecap="round" stroke-linejoin="round"/>
<path d="M197.212 138.036H177.646C176.445 138.036 175.467 137.058 175.467 135.857V120.816C175.467 119.615 176.445 118.637 177.646 118.637H197.212C198.413 118.637 199.391 119.615 199.391 120.816V135.857C199.391 137.058 198.413 138.036 197.212 138.036Z" fill="#BF6CA3" stroke="#263238" stroke-miterlimit="10" stroke-linecap="round" stroke-linejoin="round"/>
<path d="M184.602 127.585C185.431 127.585 186.089 127.818 186.577 128.283C187.069 128.748 187.315 129.384 187.315 130.193C187.315 131.15 187.02 131.886 186.431 132.402C185.841 132.917 184.997 133.175 183.899 133.175C182.946 133.175 182.177 133.021 181.591 132.712V131.148C181.899 131.312 182.259 131.447 182.669 131.552C183.079 131.654 183.468 131.705 183.835 131.705C184.94 131.705 185.493 131.251 185.493 130.345C185.493 129.482 184.921 129.05 183.776 129.05C183.569 129.05 183.341 129.072 183.091 129.115C182.841 129.154 182.638 129.197 182.481 129.244L181.761 128.857L182.083 124.492H186.729V126.027H183.671L183.513 127.708L183.718 127.667C183.956 127.613 184.251 127.585 184.602 127.585ZM188.282 129.419C188.282 127.724 188.64 126.462 189.354 125.634C190.073 124.806 191.147 124.392 192.577 124.392C193.065 124.392 193.448 124.421 193.725 124.48V125.927C193.378 125.849 193.034 125.81 192.694 125.81C192.073 125.81 191.565 125.904 191.171 126.091C190.78 126.279 190.487 126.556 190.292 126.923C190.097 127.291 189.981 127.812 189.946 128.488H190.022C190.409 127.824 191.028 127.492 191.88 127.492C192.645 127.492 193.245 127.732 193.679 128.212C194.112 128.693 194.329 129.357 194.329 130.205C194.329 131.119 194.071 131.843 193.556 132.378C193.04 132.91 192.325 133.175 191.411 133.175C190.778 133.175 190.225 133.029 189.753 132.736C189.284 132.443 188.921 132.015 188.663 131.453C188.409 130.89 188.282 130.212 188.282 129.419ZM191.376 131.728C191.763 131.728 192.059 131.599 192.266 131.341C192.473 131.08 192.577 130.708 192.577 130.228C192.577 129.81 192.479 129.482 192.284 129.244C192.093 129.001 191.802 128.88 191.411 128.88C191.044 128.88 190.729 129 190.468 129.238C190.21 129.476 190.081 129.753 190.081 130.07C190.081 130.535 190.202 130.927 190.444 131.248C190.69 131.568 191.001 131.728 191.376 131.728Z" fill="white"/>
<path d="M183.847 162.885C183.205 162.885 182.701 162.636 182.333 162.138C181.968 161.64 181.786 160.95 181.786 160.068C181.786 159.173 181.972 158.476 182.343 157.978C182.717 157.477 183.231 157.226 183.886 157.226C184.572 157.226 185.097 157.493 185.458 158.027H185.507C185.432 157.62 185.394 157.257 185.394 156.938V155.19H186.889V162.788H185.746L185.458 162.08H185.394C185.056 162.617 184.54 162.885 183.847 162.885ZM184.369 161.699C184.75 161.699 185.028 161.588 185.204 161.367C185.383 161.145 185.481 160.769 185.497 160.239V160.078C185.497 159.492 185.406 159.072 185.223 158.818C185.044 158.564 184.751 158.437 184.345 158.437C184.013 158.437 183.754 158.579 183.568 158.862C183.386 159.142 183.295 159.55 183.295 160.087C183.295 160.625 183.388 161.028 183.573 161.298C183.759 161.565 184.024 161.699 184.369 161.699ZM188.563 155.649H190.785C191.797 155.649 192.531 155.794 192.987 156.083C193.446 156.37 193.676 156.827 193.676 157.456C193.676 157.882 193.575 158.232 193.373 158.505C193.174 158.779 192.909 158.943 192.577 158.999V159.047C193.029 159.148 193.355 159.337 193.554 159.614C193.755 159.89 193.856 160.258 193.856 160.717C193.856 161.368 193.62 161.876 193.148 162.241C192.68 162.605 192.042 162.788 191.234 162.788H188.563V155.649ZM190.077 158.476H190.956C191.366 158.476 191.662 158.413 191.845 158.286C192.03 158.159 192.123 157.949 192.123 157.656C192.123 157.382 192.022 157.187 191.82 157.07C191.622 156.949 191.306 156.889 190.873 156.889H190.077V158.476ZM190.077 159.677V161.538H191.063C191.48 161.538 191.788 161.458 191.986 161.298C192.185 161.139 192.284 160.895 192.284 160.566C192.284 159.973 191.861 159.677 191.015 159.677H190.077Z" fill="white"/>
<path d="M178.293 171.876C178.293 174.049 176.533 175.803 174.368 175.803C172.196 175.803 170.443 174.042 170.443 171.876C170.443 169.71 172.203 167.949 174.368 167.949C176.533 167.942 178.293 169.703 178.293 171.876Z" fill="#BF6CA3"/>
<path d="M204.416 171.876C204.416 174.049 202.655 175.803 200.49 175.803C198.325 175.803 196.565 174.042 196.565 171.876C196.565 169.71 198.325 167.949 200.49 167.949C202.662 167.942 204.416 169.703 204.416 171.876Z" fill="#BF6CA3" fill-opacity="0.7"/>
<path opacity="0.5" d="M178.293 171.876C178.293 174.049 176.533 175.803 174.368 175.803C172.196 175.803 170.443 174.042 170.443 171.876C170.443 169.71 172.203 167.949 174.368 167.949C176.533 167.942 178.293 169.703 178.293 171.876Z" fill="white"/>
<path d="M191.351 171.876C191.351 174.049 189.591 175.803 187.426 175.803C185.254 175.803 183.5 174.042 183.5 171.876C183.5 169.71 185.261 167.949 187.426 167.949C189.598 167.942 191.351 169.703 191.351 171.876Z" fill="#BF6CA3"/>
<path opacity="0.5" d="M204.416 171.876C204.416 174.049 202.655 175.803 200.49 175.803C198.325 175.803 196.565 174.042 196.565 171.876C196.565 169.71 198.325 167.949 200.49 167.949C202.662 167.942 204.416 169.703 204.416 171.876Z" fill="black" fill-opacity="0.7"/>
<path d="M178.293 171.876C178.293 174.049 176.533 175.803 174.368 175.803C172.196 175.803 170.443 174.042 170.443 171.876C170.443 169.71 172.203 167.949 174.368 167.949C176.533 167.942 178.293 169.703 178.293 171.876Z" stroke="#263238" stroke-miterlimit="10" stroke-linecap="round" stroke-linejoin="round"/>
<path d="M191.351 171.876C191.351 174.049 189.591 175.803 187.426 175.803C185.254 175.803 183.5 174.042 183.5 171.876C183.5 169.71 185.261 167.949 187.426 167.949C189.598 167.942 191.351 169.703 191.351 171.876Z" stroke="#263238" stroke-miterlimit="10" stroke-linecap="round" stroke-linejoin="round"/>
<path d="M204.416 171.876C204.416 174.049 202.655 175.803 200.49 175.803C198.325 175.803 196.565 174.042 196.565 171.876C196.565 169.71 198.325 167.949 200.49 167.949C202.662 167.942 204.416 169.703 204.416 171.876Z" stroke="#263238" stroke-miterlimit="10" stroke-linecap="round" stroke-linejoin="round"/>
</g>
<defs>
<linearGradient id="paint0_linear_34_1929" x1="29.7102" y1="217.172" x2="338.584" y2="216.437" gradientUnits="userSpaceOnUse">
<stop stop-color="#AC92EA"/>
<stop offset="1" stop-color="#BF6CA3"/>
</linearGradient>
<linearGradient id="paint1_linear_34_1929" x1="-161.919" y1="152.318" x2="72.5489" y2="-118.687" gradientUnits="userSpaceOnUse">
<stop stop-color="#F545E5"/>
<stop offset="1" stop-color="#FFAA6C"/>
</linearGradient>
<clipPath id="clip0_34_1929">
<rect width="375" height="300" fill="white"/>
</clipPath>
</defs>
</svg>
