<svg width="22" height="26" viewBox="0 0 22 26" fill="none" xmlns="http://www.w3.org/2000/svg">
<path d="M1 3.4H0.25H1ZM1 22.6H0.25H1ZM21 8.6104H21.75V8.6103L21 8.6104ZM20.2475 6.8944L19.7342 7.4412L19.7343 7.44132L20.2475 6.8944ZM14.6975 1.684L15.2108 1.1372L15.2108 1.13717L14.6975 1.684ZM12.95 1L12.9501 0.25H12.95V1ZM3.5 1V0.25V1ZM7.25 13.45C6.83579 13.45 6.5 13.7858 6.5 14.2C6.5 14.6142 6.83579 14.95 7.25 14.95V13.45ZM14.75 14.95C15.1642 14.95 15.5 14.6142 15.5 14.2C15.5 13.7858 15.1642 13.45 14.75 13.45V14.95ZM7.25 18.25C6.83579 18.25 6.5 18.5858 6.5 19C6.5 19.4142 6.83579 19.75 7.25 19.75V18.25ZM11 19.75C11.4142 19.75 11.75 19.4142 11.75 19C11.75 18.5858 11.4142 18.25 11 18.25V19.75ZM16 8.2V8.95V8.2ZM0.25 3.4V22.6H1.75V3.4H0.25ZM0.25 22.6C0.25 23.4455 0.600169 24.2499 1.21283 24.8381L2.25163 23.756C1.92661 23.444 1.75 23.0275 1.75 22.6H0.25ZM1.21283 24.8381C1.82446 25.4253 2.6477 25.75 3.5 25.75V24.25C3.02622 24.25 2.57769 24.069 2.25163 23.756L1.21283 24.8381ZM3.5 25.75H18.5V24.25H3.5V25.75ZM18.5 25.75C19.3523 25.75 20.1755 25.4253 20.7872 24.8381L19.7484 23.756C19.4223 24.069 18.9738 24.25 18.5 24.25V25.75ZM20.7872 24.8381C21.3998 24.2499 21.75 23.4455 21.75 22.6H20.25C20.25 23.0275 20.0734 23.444 19.7484 23.756L20.7872 24.8381ZM21.75 22.6V8.6104H20.25V22.6H21.75ZM21.75 8.6103C21.7499 8.18624 21.6616 7.76728 21.491 7.37829L20.1173 7.9807C20.2052 8.18107 20.25 8.3951 20.25 8.61049L21.75 8.6103ZM21.491 7.37829C21.3205 6.98939 21.0716 6.63923 20.7607 6.34748L19.7343 7.44132C19.8997 7.59655 20.0294 7.78023 20.1173 7.9807L21.491 7.37829ZM20.7608 6.34761L15.2108 1.1372L14.1842 2.2308L19.7342 7.4412L20.7608 6.34761ZM15.2108 1.13717C14.6017 0.565429 13.7898 0.2501 12.9501 0.25L12.9499 1.75C13.4166 1.75006 13.8592 1.92575 14.1842 2.23083L15.2108 1.13717ZM12.95 0.25H3.5V1.75H12.95V0.25ZM3.5 0.25C2.6477 0.25 1.82446 0.574744 1.21283 1.1619L2.25163 2.24398C2.57769 1.93097 3.02622 1.75 3.5 1.75V0.25ZM1.21283 1.1619C0.600169 1.75006 0.25 2.55446 0.25 3.4H1.75C1.75 2.9725 1.92661 2.556 2.25163 2.24398L1.21283 1.1619ZM7.25 14.95H14.75V13.45H7.25V14.95ZM7.25 19.75H11V18.25H7.25V19.75ZM12.75 1V5.8H14.25V1H12.75ZM12.75 5.8C12.75 6.64554 13.1002 7.44994 13.7128 8.0381L14.7516 6.95602C14.4266 6.644 14.25 6.2275 14.25 5.8H12.75ZM13.7128 8.0381C14.3245 8.62526 15.1477 8.95 16 8.95V7.45C15.5262 7.45 15.0777 7.26903 14.7516 6.95602L13.7128 8.0381ZM16 8.95H21V7.45H16V8.95Z" fill="white"/>
</svg>
