<svg width="22" height="25" viewBox="0 0 22 25" fill="none" xmlns="http://www.w3.org/2000/svg">
<path d="M11 16.3333V18.8889M3.5 24H18.5C19.163 24 19.7989 23.7308 20.2678 23.2515C20.7366 22.7722 21 22.1222 21 21.4444V13.7778C21 13.1 20.7366 12.45 20.2678 11.9707C19.7989 11.4915 19.163 11.2222 18.5 11.2222H3.5C2.83696 11.2222 2.20107 11.4915 1.73223 11.9707C1.26339 12.45 1 13.1 1 13.7778V21.4444C1 22.1222 1.26339 22.7722 1.73223 23.2515C2.20107 23.7308 2.83696 24 3.5 24ZM16 11.2222V6.11111C16 4.75556 15.4732 3.45553 14.5355 2.49701C13.5979 1.53849 12.3261 1 11 1C9.67392 1 8.40215 1.53849 7.46447 2.49701C6.52678 3.45553 6 4.75556 6 6.11111V11.2222H16Z" stroke="white" stroke-width="1.5" stroke-linecap="round" stroke-linejoin="round"/>
</svg>
