<svg width="18" height="23" viewBox="0 0 18 23" fill="none" xmlns="http://www.w3.org/2000/svg">
<path d="M1.70188 17.655L0.954418 17.7167H0.954418L1.70188 17.655ZM16.2981 17.655L17.0456 17.7167L16.2981 17.655ZM16.9924 9.23929L16.245 9.17762L16.9924 9.23929ZM1.00758 9.23929L1.75504 9.17762L1.00758 9.23929ZM1.5 3.10714C1.08579 3.10714 0.75 3.44293 0.75 3.85714C0.75 4.27136 1.08579 4.60714 1.5 4.60714V3.10714ZM16.5 4.60714C16.9142 4.60714 17.25 4.27136 17.25 3.85714C17.25 3.44293 16.9142 3.10714 16.5 3.10714V4.60714ZM11.6426 11.4118C11.6426 10.9976 11.3068 10.6618 10.8926 10.6618C10.4784 10.6618 10.1426 10.9976 10.1426 11.4118H11.6426ZM10.1426 17.2941C10.1426 17.7083 10.4784 18.0441 10.8926 18.0441C11.3068 18.0441 11.6426 17.7083 11.6426 17.2941H10.1426ZM7.85736 11.4118C7.85736 10.9976 7.52158 10.6618 7.10736 10.6618C6.69315 10.6618 6.35736 10.9976 6.35736 11.4118H7.85736ZM6.35736 17.2941C6.35736 17.7083 6.69315 18.0441 7.10736 18.0441C7.52158 18.0441 7.85736 17.7083 7.85736 17.2941H6.35736ZM12.5 3.85714V4.60714H13.4199L13.2346 3.70608L12.5 3.85714ZM5.5 3.85714L4.76537 3.70608L4.58008 4.60714H5.5V3.85714ZM5.82511 2.27614L6.55974 2.4272L5.82511 2.27614ZM5.85025 2.07479L6.59711 2.14336L5.85025 2.07479ZM12.1749 2.27614L12.9095 2.12507L12.1749 2.27614ZM12.1497 2.07479L12.8966 2.00621L12.1497 2.07479ZM3.52366 7.45588H14.4763V5.95588H3.52366V7.45588ZM16.245 9.17762L15.5507 17.5934L17.0456 17.7167L17.7399 9.30095L16.245 9.17762ZM11.266 21.25H6.73404V22.75H11.266V21.25ZM2.44934 17.5934L1.75504 9.17762L0.260122 9.30095L0.954418 17.7167L2.44934 17.5934ZM6.73404 21.25C4.44284 21.25 2.616 19.6136 2.44934 17.5934L0.954418 17.7167C1.19229 20.6 3.75073 22.75 6.73404 22.75V21.25ZM15.5507 17.5934C15.384 19.6136 13.5572 21.25 11.266 21.25V22.75C14.2493 22.75 16.8077 20.6 17.0456 17.7167L15.5507 17.5934ZM14.4763 7.45588C15.5644 7.45588 16.3171 8.30262 16.245 9.17762L17.7399 9.30095C17.8932 7.4428 16.3282 5.95588 14.4763 5.95588V7.45588ZM3.52366 5.95588C1.6718 5.95588 0.106826 7.44281 0.260122 9.30095L1.75504 9.17762C1.68286 8.30262 2.43558 7.45588 3.52366 7.45588V5.95588ZM10.1426 11.4118V17.2941H11.6426V11.4118H10.1426ZM6.35736 11.4118V17.2941H7.85736V11.4118H6.35736ZM7.10736 1.75H10.8926V0.25H7.10736V1.75ZM11.4403 2.4272L11.7654 4.00821L13.2346 3.70608L12.9095 2.12507L11.4403 2.4272ZM6.23463 4.00821L6.55974 2.4272L5.09048 2.12507L4.76537 3.70608L6.23463 4.00821ZM10.8926 1.75C11.2053 1.75 11.3866 1.96597 11.4029 2.14336L12.8966 2.00621C12.8023 0.97932 11.9002 0.25 10.8926 0.25V1.75ZM7.10736 0.25C6.09977 0.25 5.19768 0.97932 5.1034 2.00621L6.59711 2.14336C6.6134 1.96597 6.79474 1.75 7.10736 1.75V0.25ZM12.5 3.10714H9V4.60714H12.5V3.10714ZM9 3.10714H5.5V4.60714H9V3.10714ZM1.5 4.60714H9V3.10714H1.5V4.60714ZM9 4.60714H16.5V3.10714H9V4.60714ZM6.55974 2.4272C6.58377 2.31036 6.59251 2.19352 6.59711 2.14336L5.1034 2.00621C5.09563 2.09081 5.09371 2.10937 5.09048 2.12507L6.55974 2.4272ZM12.9095 2.12507C12.9063 2.10937 12.9044 2.09081 12.8966 2.00621L11.4029 2.14336C11.4075 2.19352 11.4162 2.31036 11.4403 2.4272L12.9095 2.12507Z" fill="white"/>
</svg>
