<?xml version="1.0" encoding="UTF-8"?>
<svg width="303px" height="191px" viewBox="0 0 303 191" version="1.1" xmlns="http://www.w3.org/2000/svg" xmlns:xlink="http://www.w3.org/1999/xlink">
    <title>Speaker</title>
    <defs>
        <linearGradient x1="0%" y1="30.1265129%" x2="102.187304%" y2="30.2643868%" id="linearGradient-1">
            <stop stop-color="#8AD4EC" offset="0%"></stop>
            <stop stop-color="#EF96FF" offset="21.7372%"></stop>
            <stop stop-color="#FF56A9" offset="54.0308%"></stop>
            <stop stop-color="#FFAA6C" offset="85.2826%"></stop>
        </linearGradient>
    </defs>
    <g id="Page-1" stroke="none" stroke-width="1" fill="none" fill-rule="evenodd">
        <g id="Artboard" transform="translate(-27.000000, -73.000000)" fill="url(#linearGradient-1)" fill-rule="nonzero">
            <g id="Speaker" transform="translate(27.000000, 73.000000)">
                <path d="M104.653236,0 C116.629236,0 127.463236,10.2352 135.461236,26.8567 C128.224236,13.8725 118.872236,6.09035 108.716236,6.09035 C85.5254363,6.09035 66.7783363,46.5658 66.7783363,96.4728 C66.7783363,146.38 85.5677363,186.855 108.716236,186.855 C115.571236,186.855 122.046236,183.302 127.759236,177.001 C121.030236,185.882 113.117236,191 104.653236,191 C80.1933363,191 60.3459363,148.241 60.3459363,95.5 C60.3459363,42.7593 80.1933363,0 104.653236,0 Z M72.7030363,13.3647 C70.4602363,16.7906 68.3442363,20.597 66.3976363,24.7841 C57.5954363,43.7742 52.7287363,68.9392 52.7287363,95.4998 C52.7287363,122.061 57.5530363,147.183 66.3976363,166.216 C68.7251363,171.206 71.2642363,175.689 74.0149363,179.623 C64.9165363,173.617 57.1299363,160.844 52.0093363,144.053 C51.1206363,144.138 50.2743363,144.18 49.3856363,144.18 C41.3451363,144.18 33.9394363,140.754 27.9301363,135.002 C12.3569363,133.861 0,131.746 0,96.0497 C0,59.8036 12.3569363,58.2388 27.9301363,57.0968 C33.9817363,51.3448 41.3874363,47.919 49.3856363,47.919 C50.2743363,47.919 51.1630363,47.9613 52.0093363,48.0459 C56.8759363,32.0164 64.1547363,19.7089 72.7030363,13.3647 Z M109.731236,17.7637 C118.534236,17.7637 126.913236,24.573 133.260236,36.9229 C139.185236,48.4269 143.205236,64.3717 144.602236,81.7123 C144.729236,83.108 145.871236,84.1654 147.268236,84.0808 C147.945236,84.0385 148.580236,83.7424 149.045236,83.2349 C149.511236,82.7274 149.722236,82.0084 149.680236,81.3317 C148.622236,67.3746 145.956236,54.3057 141.978236,43.4785 C140.539236,39.5451 141.936236,35.1888 145.406236,32.8627 C147.606236,31.3824 150.357236,30.9594 152.896236,31.6784 C155.435236,32.3974 157.551236,34.2161 158.609236,36.6268 C165.211236,51.2183 168.808236,70.8004 168.808236,91.736 C168.808236,104.001 167.496236,116.182 165.042236,127.009 C164.830236,127.897 164.999236,128.786 165.549236,129.547 C166.099236,130.308 166.861236,130.773 167.792236,130.9 C169.443236,131.112 170.966236,130.012 171.305236,128.363 C173.632236,117.282 174.817236,105.397 174.817236,92.9625 C174.817236,79.5553 173.378236,66.2327 170.628236,54.5595 C169.527236,49.9495 172.109236,45.3394 176.594236,43.8168 C179.007236,43.0132 181.630236,43.2247 183.873236,44.4512 C186.116236,45.6778 187.767236,47.7925 188.359236,50.2878 C191.533236,62.976 193.226236,77.4829 193.226236,92.2012 C193.226236,98.207 192.929236,104.17 192.422236,109.965 C192.337236,110.98 192.633236,111.953 193.310236,112.756 C193.945236,113.517 194.876236,113.983 195.892236,114.067 C197.923236,114.194 199.658236,112.756 199.870236,110.726 C200.504236,104.593 200.843236,98.2493 200.843236,91.8629 C200.843236,82.1352 200.081236,72.6191 198.642236,63.5681 C197.838236,58.4929 200.970236,53.7559 205.921236,52.4871 C208.545236,51.8527 211.338236,52.3179 213.623236,53.7559 C215.908236,55.2362 217.474236,57.6047 217.940236,60.2692 C219.717236,70.2929 220.606236,80.951 220.606236,91.8629 C220.606236,95.1618 220.521236,98.503 220.352236,101.802 C220.309236,102.775 220.648236,103.705 221.325236,104.424 C222.002236,105.143 222.891236,105.524 223.864236,105.566 L223.906236,105.566 C225.811236,105.566 227.334236,104.086 227.461236,102.183 C227.673236,98.5453 227.800236,94.7812 227.800236,91.0593 C227.800236,84.7998 227.504236,78.6248 226.869236,72.5768 C226.615236,69.9123 227.419236,67.29 229.112236,65.2599 C230.847236,63.2298 233.259236,62.0033 235.925236,61.7918 C241.172236,61.4112 245.743236,65.2176 246.378236,70.4621 C247.182236,77.3983 247.562236,84.5883 247.562236,91.8206 L247.562236,92.7933 C247.562236,94.9503 249.255236,96.7267 251.413236,96.8113 C252.514236,96.8536 253.529236,96.4729 254.333236,95.7116 C255.137236,94.9926 255.561236,93.9776 255.603236,92.8779 C255.645236,91.4822 255.645236,90.0442 255.645236,88.6485 C255.645236,85.7302 255.561236,82.8119 255.434236,79.8937 C255.307236,77.356 256.195236,74.9453 257.931236,73.0843 C259.666236,71.2234 262.035236,70.166 264.574236,70.1237 L264.744236,70.1237 L264.744236,70.1237 C269.695236,70.1237 273.800236,73.9725 274.054236,78.9632 L274.054236,79.1324 C274.265236,83.3618 277.778236,86.6607 281.967236,86.6607 L299.953236,86.6607 C301.603236,86.6607 302.957236,88.0141 302.957236,89.6636 C302.957236,91.3131 301.603236,92.6665 299.953236,92.6665 L281.967236,92.6665 C274.562236,92.6665 268.425236,86.8722 268.002236,79.4284 L268.002236,79.2592 C267.918236,77.4406 266.394236,76.0872 264.617236,76.0872 C263.728236,76.0872 262.882236,76.4678 262.247236,77.1445 C261.612236,77.8212 261.316236,78.6671 261.358236,79.5553 C261.485236,82.5159 261.570236,85.5611 261.570236,88.5639 C261.570236,90.0019 261.570236,91.4822 261.528236,92.9202 C261.485236,95.627 260.343236,98.1224 258.354236,99.9833 C256.365236,101.844 253.783236,102.817 251.075236,102.69 C245.658236,102.479 241.426236,98.0378 241.469236,92.6242 L241.469236,91.6937 C241.469236,84.6729 241.088236,77.7367 240.326236,71.0119 C240.114236,68.9818 238.337236,67.5438 236.306236,67.6707 C235.290236,67.7553 234.359236,68.2205 233.682236,68.9818 C233.005236,69.7854 232.709236,70.8004 232.793236,71.8155 C233.428236,78.0327 233.724236,84.4614 233.724236,90.8901 C233.724236,94.7389 233.597236,98.5876 233.386236,102.352 C233.090236,107.512 228.815236,111.445 223.653236,111.403 C221.029236,111.36 218.617236,110.303 216.797236,108.358 C215.020236,106.454 214.089236,103.959 214.216236,101.337 C214.385236,98.1647 214.469236,94.9503 214.469236,91.736 C214.469236,81.1625 213.581236,70.885 211.888236,61.1997 C211.719236,60.1423 211.126236,59.2542 210.195236,58.662 C209.307236,58.0699 208.249236,57.9007 207.233236,58.1545 C205.329236,58.6197 204.101236,60.4807 204.440236,62.4262 C205.963236,71.7732 206.725236,81.6277 206.725236,91.6937 C206.725236,98.2916 206.387236,104.847 205.752236,111.191 C205.202236,116.436 200.631236,120.284 195.342236,119.904 C192.718236,119.735 190.306236,118.508 188.571236,116.478 C186.836236,114.448 186.031236,111.868 186.285236,109.246 C186.793236,103.621 187.089236,97.8263 187.089236,92.0321 C187.089236,77.779 185.481236,63.8219 182.392236,51.5989 C182.180236,50.7108 181.630236,50.034 180.826236,49.5688 C180.065236,49.1459 179.176236,49.0613 178.372236,49.3573 C176.848236,49.8649 175.960236,51.4298 176.341236,52.9946 C179.176236,65.133 180.699236,78.9209 180.699236,92.7933 C180.699236,105.651 179.472236,117.958 177.018236,129.42 C176.002236,134.115 171.686236,137.244 166.904236,136.695 C164.322236,136.399 161.952236,135.003 160.429236,132.846 C158.948236,130.731 158.398236,128.067 158.990236,125.529 C161.360236,115.167 162.587236,103.409 162.587236,91.5668 C162.587236,71.4771 159.159236,52.7832 152.896236,38.9107 C152.515236,38.1071 151.838236,37.515 150.992236,37.2612 C150.145236,37.0075 149.257236,37.1344 148.495236,37.6419 C147.352236,38.4032 146.887236,39.8412 147.352236,41.1523 C151.500236,52.4871 154.293236,66.1058 155.393236,80.6127 C155.562236,82.9388 154.800236,85.2227 153.277236,86.9568 C151.754236,88.6908 149.595236,89.7059 147.268236,89.8328 C142.655236,90.0442 138.719236,86.5761 138.339236,81.9238 C135.715236,48.596 123.273236,23.5157 109.477236,23.5157 C102.199236,23.5157 94.8778363,30.8325 89.3340363,43.6053 C83.3671363,57.3509 80.1086363,75.7065 80.1086363,95.2464 C80.1086363,114.786 83.4095363,133.142 89.3340363,146.887 C94.8778363,159.66 102.199236,166.977 109.477236,166.977 C115.148236,166.977 120.226236,164.736 124.500236,160.295 C131.652236,152.851 139.862236,135.637 138.381236,95.8808 C138.339236,94.2313 139.608236,92.8356 141.259236,92.7511 C142.909236,92.7088 144.305236,93.9776 144.390236,95.6271 C145.660236,129.251 140.455236,152.386 128.859236,164.439 C123.696236,170.276 117.010236,173.237 109.731236,173.237 C89.8842363,173.237 74.3110363,139.105 74.3110363,95.5002 C74.3110363,51.895 89.8842363,17.7637 109.731236,17.7637 Z M109.731236,59.9307 C116.252236,59.9307 121.538236,75.8556 121.538236,95.5 C121.538236,115.144 116.252236,131.069 109.731236,131.069 C103.211236,131.069 97.9248363,115.144 97.9248363,95.5 C97.9248363,75.8556 103.211236,59.9307 109.731236,59.9307 Z" id="Combined-Shape"></path>
            </g>
        </g>
    </g>
</svg>